<svg xmlns="http://www.w3.org/2000/svg" viewBox="0 0 64 64" role="img" aria-label="AMDG">
  <rect width="64" height="64" rx="10" fill="#000000"/>
  <g fill="#FFFFFF">
    <g transform="translate(11.975,25.500) scale(0.01289,-0.01289)"><path d="M1019 303H476L374 0H52L578 1474H926L1448 0H1114ZM933 557 749 1137 559 557ZM1917 0H1630V1474H2078L2346 315L2612 1474H3055V0H2768V997Q2768 1040 2769.0 1117.5Q2770 1195 2770 1237L2491 0H2192L1915 1237Q1915 1195 1916.0 1117.5Q1917 1040 1917 997Z"/></g>
    <g transform="translate(12.085,57.494) scale(0.01289,-0.01289)"><path d="M791 0H156V1474H791Q928 1472 1019 1442Q1174 1391 1270 1255Q1347 1145 1375.0 1017.0Q1403 889 1403 773Q1403 479 1285 275Q1125 0 791 0ZM1020 1098Q949 1218 739 1218H455V256H739Q957 256 1043 471Q1090 589 1090 752Q1090 977 1020 1098ZM2539 36Q2417 -39 2239 -39Q1946 -39 1759 164Q1564 368 1564 722Q1564 1080 1761 1296Q1958 1512 2282 1512Q2563 1512 2733.5 1369.5Q2904 1227 2929 1014H2626Q2591 1165 2455 1225Q2379 1258 2286 1258Q2108 1258 1993.5 1123.5Q1879 989 1879 719Q1879 447 2003.0 334.0Q2127 221 2285 221Q2440 221 2539.0 310.5Q2638 400 2661 545H2320V791H2934V0H2730L2699 184Q2610 79 2539 36Z"/></g>
  </g>
</svg>
