<?xml version="1.0" encoding="UTF-8"?>
<svg id="Layer_1" xmlns="http://www.w3.org/2000/svg" version="1.1" viewBox="0 0 71.28 89.6">
  <!-- Generator: Adobe Illustrator 30.5.1, SVG Export Plug-In . SVG Version: 2.1.4 Build 3)  -->
  <defs>
    <style>
      .st0 {
        fill: #003595;
      }

      .st1 {
        fill: #fff;
      }

      .st2 {
        fill: #d4c581;
      }
    </style>
  </defs>
  <path class="st0" d="M34.75,8.11c-11.34,0-22.12,2.33-32.05,6.92L0,16.28v42.62c-.05,5.93,5.52,12.4,17.53,20.37,7.86,5.21,15.68,9.17,16.01,9.34l1.98.99,2.02-.9c.89-.4,8.96-4.05,16.92-9.19,11.53-7.45,17.04-14.22,16.82-20.68V16.32l-2.64-1.26c-.15-.07-14.69-6.95-33.89-6.95h0Z"/>
  <path class="st0" d="M35.33,0c-.17-.01-.34.12-.41.4-.13.56-.46,1.69-.65,2.24-.25.74-.76,2.7-.78,2.78-4.45.97-7.69,3.85-9.35,5.16-1.97,1.55-6.4,7.02-6.4,7.02,0,0,8.49-2.8,17.25-2.8,9.76,0,15.34,1.13,15.34,1.13,0,0-.57-4.4-3.42-6.72-2.66-2.16-4.77-4.01-9.71-4.11-.13-.47-.5-1.84-.66-2.33-.18-.55-.61-1.8-.77-2.32-.08-.28-.26-.43-.44-.44h0Z"/>
  <path class="st1" d="M66.62,19.24v39.66c.51,11.46-30.99,25.54-30.99,25.54,0,0-31.11-15.65-30.99-25.54V19.24c31.58-14.61,61.97,0,61.97,0M35.95,85.15c1.31-.58,31.94-14.42,31.45-26.27V18.75l-.44-.21c-.13-.07-13.88-6.57-32.21-6.57-10.77,0-21.01,2.21-30.43,6.57l-.45.21v40.16c-.05,4.37,5.26,10.14,15.8,17.12,7.71,5.12,15.54,9.07,15.62,9.11l.33.17.33-.15Z"/>
  <path class="st0" d="M49.07,11.33l4.68,5.53-7.47-1.23-2.1-4.28,4.9-.02Z"/>
  <path class="st2" d="M34.05,5.84c-5.42.18-9.34,3.93-11.19,5.48-1.85,1.55-6.01,7.02-6.01,7.02,0,0,7.97-2.8,16.19-2.8,9.16,0,14.4,1.13,14.4,1.13,0,0-.54-4.4-3.21-6.73-2.68-2.32-4.76-4.28-10.18-4.11"/>
  <path class="st2" d="M38.67,14.96c-1.48,0-3.18.01-5.22.04-8.7.13-14.49,1.6-18.66,3.12-1.58.63-3.3,1.7-4.16,2.44-1.44,1.22-2.13,2.68-2.22,4.02-.1,1.43.75,2.74.75,2.74,0,0-.12-2.14,1.04-3.99.46-.72,1.02-1.25,1.47-1.66.45-.41,1.81-1.31,3.57-2.08,3.55-1.25,10.53-3.33,18.15-3.39,7.62-.06,14.74,1.27,14.74,1.27,0,0,6.69,1.38,9.3,2.66,2.61,1.28,4.11,2.61,4.72,3.59.36.61.57,1.12.47,1.75-.11.76-.29,1.4-.29,1.4,0,0,.33-.42.59-.97.25-.55.28-1.37-.18-2.5-.46-1.13-2.24-3.38-4.57-4.56-2.33-1.18-5.1-2.15-9.4-3.02-3.23-.65-5.65-.85-10.09-.87h0ZM34.59,17.45c-6.01.06-10.25,1.13-12.57,1.67-2.32.54-5.54,1.27-8.36,2.91-2.14,1.25-3.53,3.93-3.88,6.07-.52,3.1,3.27,5.18,3.27,5.18,0,0-2.88-2.58-2.26-4.76.65-2.32,2.58-4.16,4.24-5.11,1.67-.95,6.72-2.2,9.55-2.74,2.83-.54,6.74-1.01,10.72-1.01s8.09.59,8.09.59c0,0,5.8.74,9.61,1.87,3.81,1.13,4.52,1.85,5.71,2.74,1.19.89,3.18,2.76,2.46,4.49-.71,1.72-3.27,4.46-3.27,4.46,0,0,2.98-2.68,3.81-4.23.83-1.55.31-3.96-1.32-5.63-1.63-1.76-3.17-2.44-5.62-3.38-2.46-.94-6.44-1.7-9.3-2.12s-5.23-1.07-10.89-1.01h0ZM29.26,27.03l-4.68.56.76.76,3.35-.4.58-.92h0ZM34.58,28.05c-2.99-.03-5.29.29-5.29.29v.6s4.56,0,6.83,1.48c1.83,1.2,4.73,4.5,4.73,4.5,0,0,1.3-1.29,3.37-2.38,2.07-1.09,4.51-1.82,4.51-1.82,0,0,.11-.63.08-.64-1.88-.81-7.47-1.48-11.07-1.84-1.09-.11-2.16-.16-3.16-.17h0ZM28.59,28.61c-.08-.06-2.88.27-2.93.42-.05.15.57,5.64.57,5.64,0,0,.7-.23,1.15-.29.45-.06,1.2-.18,1.2-.18,0,0,.1-5.53.02-5.59h0ZM25.06,28.99s-3.63,1.15-5.71,2.4c-2.09,1.25-4.69,3.17-4.69,3.17l-.36.52v5.28s1.49-5.21,3.64-6.98c3.2-2.66,7.15-3.87,7.15-3.87l-.03-.53h0ZM49.07,29.04l.52.94,3.33.53.81-.73-4.65-.75h0ZM30.03,29.97c-.45,0-.71.03-.71.03l-.1,3.72s2.56-.42,6.07,2.23c1.75,1.21,2.16,3.14,2.25,4.04l-.49-.04-.64,1.87.21.76.78-1.78,6.84.45-.06-.71-.87-.07c.17-.7.69-2.55,1.59-3.48,1.69-1.8,3.55-2.22,3.55-2.22l.29-3.02c-.09-.04-2.42.71-4.4,1.87-1.86,1.09-3.56,2.94-3.56,2.94,0,0-1.55-2.41-4.17-4.54-2.25-1.87-5.21-2.07-6.55-2.05h0ZM25.19,30.53s-4.97,1.27-7.45,4.39c-2.27,2.86-3.16,7.48-3.29,8.23l-2.23,1.46v.54l3.39-1.72,1.31-.06,4.76,1.31.06-.61-3.2-1c.1-.9.55-4.21,1.9-5.63,1.88-1.98,5.11-2.96,5.11-2.96,0,0-.37-3.94-.37-3.94ZM49.71,30.74c-.08,0-.14,0-.15.02-.08.1-.45,4.45-.45,4.45,0,0,.73-.01,1.17.04.45.06,1.24.26,1.24.26,0,0,1.03-4.34.97-4.41-.06-.06-2.2-.36-2.79-.36h0ZM53.01,31.8l-.69,3.34s1.79.92,2.54,2.42c.66,1.31.71,4.9.61,5.38l.19.05,1.56.2c-.02-.42-.19-3.5-.26-5.39-.12-3.64-3.95-6-3.95-6h0ZM57.22,43.19s.01.27.01.27l-1.58-.46-2.46-.31-1.4,1.32.31.54,1.25-1.24,4.82.7v-.7l-.95-.12ZM31.32,35.5c-.66.47.1,3.49-2.62,5.91-.26.23-.53.48-.73.72-.39.49-.23.89.23,1.16s1.6.45,2.69.58c.44.05,1.14.09,1.82.12.02-.11.04-.21.09-.3-.6-.05-1.26-.11-1.46-.14-1.04-.16-2.56-.33-2.95-.82-.2-.24,1.85-.86,4.62-1.01-1.56-1.35.68-1.69.35-2.18-.64-.97,1.3-1.96,1.1-2.14-1.83-1.66-3.13-1.9-3.13-1.9h0ZM32.8,43.7c.98.09,1.98.17,1.98.17,0,0-.1.19-.19.19s-.13,0-.13,0c-.36,0-1.04-.02-1.74-.05,0,.06-.02.13-.02.19,0,.69.56,1.25,1.26,1.25s1.25-.56,1.25-1.25-.56-1.25-1.25-1.25c-.52,0-.96.31-1.15.76h0ZM38.06,41.81s-.25.35-.36.54c-.12.18-.28.87-.13,1.2.17.38.32.34.3.48-.01.14-.58.5-.63.79-.03.15.55.87.55.87l-.26,37.88s2.05-.96,3.34-1.64c1.05-.56,2.67-1.41,2.67-1.41,0,0-.51-34.28-.46-34.44.05-.16.27-.45.31-.94,0-.37-.33-.57-.21-.74.12-.17.6.09.97-.46.37-.55.43-.93.3-1.33-.13-.4-.63-.54-.63-.54,0,0-1.17-.05-1.53-.07-.49.11-1.04,1.04-1.04,1.04,0,0-.26-1.03-.96-1.14-.7-.11-2.23-.11-2.23-.11h0ZM16.32,44.09c-.94-.07-1.81,1.23-1.97,1.31-.15.08-2.2-.2-2.18.54.03,1,2.01.74,2.26,1.25.25.51-.61,23.7-.61,23.7,0,0,.51.41,2.28,1.73,1.77,1.32,2.86,2.01,2.86,2.01,0,0,.54-27.21.83-27.44s2.56-.22,2.18-1.17c-.6-1.49-3.12-.28-3.25-.33-.13-.05-1.47-1.53-2.41-1.6h0ZM53.38,44.58s-1.46.95-1.1,1.72c.18.38.81.4.8.55-.01.15,0,.32-.17.63-.13.24.24.64.24.64l.21,26.54s1.61-1.1,2.45-1.71c.78-.57,2.01-1.51,2.01-1.51,0,0-.61-22.98-.57-23.15.04-.17.37-.23.45-.38.08-.15-.15-.67-.04-.85.1-.18.45.06.83-.48.25-.35.28-.48.2-.81-.1-.43-.55-.53-.55-.53,0,0-1-.13-1.31-.15-.59.04-1.13.59-1.13.59,0,0-.3-.86-.9-.98-.6-.11-1.42-.12-1.42-.12h0Z"/>
</svg>